<svg version="1.2" baseProfile="tiny-ps" xmlns="http://www.w3.org/2000/svg" width="55" height="37"><style/><g id="Features"><g id="Delivery."><path id="delivery-truck" d="M9.82 5.33H3.69a.79.79 0 000 1.58h6.13a.79.79 0 000-1.58zm.52 11.01h-5.6a.785.785 0 100 1.57h5.6c.43 0 .79-.35.79-.78 0-.44-.36-.79-.79-.79zm-2.09-4.72H1.6c-.44 0-.79.35-.79.79 0 .43.35.79.79.79h6.65c.43 0 .78-.36.78-.79 0-.44-.35-.79-.78-.79zm0 11.01H7.6c-.43 0-.78.35-.78.79 0 .43.35.78.78.78h.65c.43 0 .78-.35.78-.78 0-.44-.35-.79-.78-.79zm-3.27 0H1.6a.785.785 0 100 1.57h3.38a.785.785 0 100-1.57zM41.84 2.77h-6.65V1.35a.79.79 0 00-.79-.78H22.23a.785.785 0 100 1.57h11.38v17.22c0 .43.36.79.79.79.43 0 .79-.36.79-.79V4.34h6.65c3.59 0 6.51 2.92 6.51 6.52v13.29h-2a4.972 4.972 0 00-4.91-4.19c-2.47 0-4.53 1.82-4.91 4.19h-1.34v-1.12c0-.44-.36-.79-.79-.79-.43 0-.79.35-.79.79v1.12h-8.33c-.38-2.37-2.44-4.19-4.91-4.19-2.48 0-4.54 1.82-4.91 4.19h-1.64V2.14h5.26a.785.785 0 100-1.57h-6.04c-.44 0-.79.35-.79.78v23.59c0 .43.35.79.79.79h2.42a4.972 4.972 0 004.91 4.19c2.47 0 4.53-1.82 4.91-4.19h11.25c.38 2.37 2.44 4.19 4.91 4.19 2.48 0 4.54-1.82 4.91-4.19h2.79c.43 0 .78-.36.78-.79V10.86c0-4.46-3.62-8.09-8.08-8.09zM20.37 28.35c-1.88 0-3.41-1.53-3.41-3.41 0-1.88 1.53-3.41 3.41-3.41 1.87 0 3.4 1.53 3.4 3.41 0 1.88-1.53 3.41-3.4 3.41zm21.07 0c-1.87 0-3.4-1.53-3.4-3.41 0-1.88 1.53-3.41 3.4-3.41 1.88 0 3.41 1.53 3.41 3.41 0 1.88-1.53 3.41-3.41 3.41zm.4-22.44h-4.3a.79.79 0 00-.78.79v7.39c0 .43.35.79.78.79H46c.43 0 .78-.36.78-.79v-3.23c0-2.73-2.21-4.95-4.94-4.95zm3.37 7.39h-6.88V7.49h3.51c1.86 0 3.37 1.51 3.37 3.37v2.44zm-24.84 9.61c-1.12 0-2.03.91-2.03 2.03 0 1.12.91 2.03 2.03 2.03 1.11 0 2.02-.91 2.02-2.03 0-1.12-.91-2.03-2.02-2.03zm0 2.49c-.25 0-.46-.21-.46-.46s.21-.45.46-.45.45.2.45.45-.2.46-.45.46zm21.07-2.49c-1.11 0-2.02.91-2.02 2.03 0 1.12.91 2.03 2.02 2.03 1.12 0 2.03-.91 2.03-2.03 0-1.12-.91-2.03-2.03-2.03zm0 2.49c-.25 0-.45-.21-.45-.46s.2-.45.45-.45.46.2.46.45-.21.46-.46.46zM46 17.03c-.44 0-.79.35-.79.78v1.99a.785.785 0 101.57 0v-1.99c0-.43-.35-.78-.78-.78zm-1.25.38c5.42 0 9.81 4.38 9.81 9.79 0 5.41-4.39 9.8-9.81 9.8-5.42 0-9.81-4.39-9.81-9.8 0-5.41 4.39-9.79 9.81-9.79z" fill="#a3bbc8"/></g></g></svg>