<svg version="1.2" baseProfile="tiny-ps" xmlns="http://www.w3.org/2000/svg" width="9" height="16"><style/><path id="Path 1" d="M6.19.12c.41 0 .83.03 1.24.05.27.01.54.04.79.07L8.2 2.73H8c-.27 0-.54-.01-.82-.01-.2 0-.4.01-.61.01-.66.02-1.14.27-1.18 1.09-.02.6-.03 1.9-.03 1.97.03 0 .68.01 1.34.01.32 0 .64 0 .87-.01h.53c-.13.96-.26 1.87-.39 2.8H5.36l-.06 6.97H2.41l.06-6.99H.1L.12 5.8H2.5v-.21c.01-.56 0-1.12.02-1.68.01-.35.03-.71.09-1.06.16-.85.55-1.57 1.27-2.08C4.5.33 5.21.14 5.96.13c.08 0 .15-.01.23-.01z" fill="#a1a1a1"/></svg>