<svg version="1.2" baseProfile="tiny-ps" xmlns="http://www.w3.org/2000/svg" width="18" height="17"><style/><g id="sidebar"><g id="Search"><path id="Shape 76" d="M17.25 16.92c-.15 0-.3-.06-.42-.17l-5.3-5.3a6.522 6.522 0 01-4.18 1.51c-3.6 0-6.53-2.93-6.53-6.53S3.75-.1 7.35-.1c3.61 0 6.53 2.93 6.53 6.53 0 1.59-.56 3.05-1.51 4.18l5.3 5.3c.11.11.17.26.17.42 0 .15-.06.3-.17.42-.12.11-.27.17-.42.17zM7.35 1.09c-2.94 0-5.34 2.39-5.34 5.34a5.345 5.345 0 0010.69 0c0-2.95-2.4-5.34-5.35-5.34z" fill="#094074"/></g></g></svg>