<svg version="1.2" baseProfile="tiny-ps" xmlns="http://www.w3.org/2000/svg" width="14" height="14"><style/><g id="Content"><g id="Blog"><g id="Comment"><g id="Name"><path id="Shape 1" d="M13.38 13.17H.55c-.24 0-.43-.19-.43-.42 0-3.62 3.07-6.58 6.85-6.58 3.77 0 6.84 2.96 6.84 6.58 0 .23-.19.42-.43.42zM.99 12.34h11.95C12.72 9.36 10.12 7 6.97 7 3.81 7 1.21 9.36.99 12.34zM6.97 7C4.96 7 3.33 5.43 3.33 3.5S4.96 0 6.97 0c2 0 3.63 1.57 3.63 3.5S8.97 7 6.97 7zm0-6.17c-1.54 0-2.78 1.2-2.78 2.67s1.24 2.67 2.78 2.67c1.53 0 2.78-1.2 2.78-2.67S8.5.83 6.97.83z" fill="#436372"/></g></g></g></g></svg>