<svg version="1.2" baseProfile="tiny-ps" xmlns="http://www.w3.org/2000/svg" width="18" height="13"><style/><g id="Content"><g id="Blog"><g id="Comment"><g id="Email"><path id="Shape 2" d="M16.71 12.99H1.29c-.71 0-1.29-.55-1.29-1.23v-9.9C0 1.18.58.62 1.29.62h15.42c.71 0 1.29.56 1.29 1.24v9.9c0 .68-.58 1.23-1.29 1.23zM1.29 1.45c-.24 0-.43.18-.43.41v9.9c0 .22.19.41.43.41h15.42c.24 0 .43-.19.43-.41v-9.9c0-.23-.19-.41-.43-.41H1.29zM9 7.04c-.26 0-.52-.08-.74-.23L.48 1.57A.397.397 0 01.38 1C.51.81.78.77.97.9l7.78 5.24c.15.1.35.1.5 0L17.03.9c.19-.13.46-.09.59.1.14.18.09.44-.1.57L9.74 6.81c-.22.15-.48.23-.74.23zm8.32 5.71c-.11 0-.22-.04-.3-.12L10.4 6.27a.423.423 0 010-.59c.17-.16.44-.16.61 0l6.61 6.37c.17.16.17.42 0 .58-.08.08-.19.12-.3.12zm-16.64 0c-.11 0-.22-.04-.3-.12a.394.394 0 010-.58l6.61-6.37c.17-.16.44-.16.61 0 .16.17.16.43 0 .59L.98 12.63c-.08.08-.19.12-.3.12z" fill="#436372"/></g></g></g></g></svg>