<svg version="1.2" baseProfile="tiny-ps" xmlns="http://www.w3.org/2000/svg" width="18" height="15"><style/><g id="Content"><g id="Blog"><g id="Comment"><g id="Email"><path id="Shape 3" d="M3 15c-.06 0-.11-.01-.16-.03-.16-.07-.27-.21-.27-.38v-2.07H1.29c-.71 0-1.29-.55-1.29-1.23V1.42C0 .74.58.19 1.29.19h15.42c.71 0 1.29.55 1.29 1.23v9.87c0 .68-.58 1.23-1.29 1.23H5.77L3.3 14.88c-.08.08-.19.12-.3.12zM1.29 1.01c-.24 0-.43.19-.43.41v9.87c0 .22.19.41.43.41H3c.24 0 .43.18.43.41v1.49l1.86-1.78c.08-.08.18-.12.3-.12h11.12c.24 0 .43-.19.43-.41V1.42c0-.22-.19-.41-.43-.41H1.29zm4.77 5.34c0 .35-.29.62-.65.62-.35 0-.64-.27-.64-.62 0-.34.29-.61.64-.61.36 0 .65.27.65.61zm3.58 0c0 .35-.29.62-.64.62-.36 0-.64-.27-.64-.62 0-.34.28-.61.64-.61.35 0 .64.27.64.61zm3.35 0c0 .35-.29.62-.65.62-.35 0-.64-.27-.64-.62 0-.34.29-.61.64-.61.36 0 .65.27.65.61z" fill="#436372"/></g></g></g></g></svg>