<svg version="1.2" baseProfile="tiny-ps" xmlns="http://www.w3.org/2000/svg" width="6" height="10"><style/><g id="Content"><g id="Sidebar"><g id="CATEGORY"><path id="Shape 20" d="M.47 9.54c.12 0 .24-.05.33-.14l4.22-4.27c.01 0 .01-.01.02-.01a.42.42 0 00.09-.14v-.01c.03-.06.05-.14.05-.21 0-.08-.02-.15-.05-.22a.42.42 0 00-.09-.14l-.02-.02L.8.12C.61-.08.31-.07.12.14c-.09.1-.13.22-.13.35 0 .14.05.27.15.37L4 4.76.14 8.65c-.1.11-.15.24-.15.38 0 .12.04.25.13.35.1.1.22.16.35.16z" fill="#243f4d"/></g></g></g></svg>