<svg version="1.2" baseProfile="tiny-ps" xmlns="http://www.w3.org/2000/svg" width="31" height="44"><style/><g id="Content"><g id="Address"><path id="icon" fill-rule="evenodd" d="M14.6 43.81l-6.59-2.92-5.67 2.51c-.64.29-1.37.15-1.87-.35-.49-.5-.61-1.23-.31-1.87l5-10.51c.1-.22.28-.4.5-.51a1.1 1.1 0 011.48.49c.17.33.15.7-.01 1.01L2.78 40.8l4.32-1.91c.58-.26 1.24-.26 1.81 0l6.58 2.91h.02l6.58-2.91c.57-.26 1.23-.26 1.8 0l4.32 1.91-4.34-9.14c-.22-.41-.16-.93.18-1.28.38-.4 1-.45 1.44-.14.15.11.27.26.35.43l5 10.52c.3.63.18 1.36-.32 1.86-.48.5-1.22.64-1.86.35L23 40.89l-6.6 2.92c-.28.13-.59.19-.9.19-.31 0-.62-.06-.9-.19zm-1.95-7.6L3.1 20.28l-.03-.06a13.952 13.952 0 01-1.53-6.41C1.56 10.17 3 6.73 5.6 4.12 8.2 1.51 11.64.05 15.3 0c3.77-.05 7.32 1.37 10 4 2.68 2.63 4.16 6.15 4.16 9.89a13.628 13.628 0 01-1.56 6.39l-9.55 15.93a3.297 3.297 0 01-2.85 1.61c-1.18 0-2.25-.6-2.85-1.61zM15.33 2.2C8.98 2.28 3.78 7.5 3.75 13.82c-.01 1.89.41 3.7 1.27 5.37l9.53 15.89c.29.49.76.54.95.54.19 0 .66-.05.95-.54l9.53-15.89c.85-1.65 1.27-3.43 1.27-5.3 0-3.15-1.24-6.11-3.5-8.33a11.694 11.694 0 00-8.24-3.36h-.18zm-4.88 11.69c0-2.77 2.26-5.02 5.05-5.02 2.78 0 5.05 2.25 5.05 5.02 0 2.78-2.27 5.03-5.05 5.03-2.79 0-5.05-2.25-5.05-5.03zm2.21 0c0 1.57 1.27 2.84 2.84 2.84a2.836 2.836 0 100-5.67c-1.57 0-2.84 1.27-2.84 2.83z" fill="#a3bbc8"/></g></g></svg>