<svg version="1.2" baseProfile="tiny-ps" xmlns="http://www.w3.org/2000/svg" width="54" height="53"><style/><g id="Features"><g id="100% Payment secure."><path id="credit-card" d="M46.43 31.32a.83.83 0 00-.84.83v8.27c0 1.19-.97 2.16-2.16 2.16H4.09c-1.19 0-2.16-.97-2.16-2.16V28.5h27.29c.46 0 .84-.38.84-.84 0-.46-.38-.84-.84-.84H1.93v-5.47h9.87c.46 0 .83-.37.83-.83 0-.46-.37-.84-.83-.84H1.93V16.8c0-1.2.97-2.17 2.16-2.17h25.13c.46 0 .84-.37.84-.84 0-.46-.38-.83-.84-.83H4.09c-2.11 0-3.83 1.72-3.83 3.84v23.62c0 2.11 1.72 3.83 3.83 3.83h39.34c2.11 0 3.83-1.72 3.83-3.83v-8.27c0-.46-.37-.83-.83-.83zM29.22 19.68H15c-.46 0-.83.38-.83.84 0 .46.37.83.83.83h14.22c.46 0 .84-.37.84-.83 0-.46-.38-.84-.84-.84zm-9.24 11.56H5.71c-.46 0-.83.37-.83.83 0 .47.37.84.83.84h14.27c.46 0 .84-.37.84-.84 0-.46-.38-.83-.84-.83zm-6.08 3.99H5.71c-.46 0-.83.37-.83.83 0 .47.37.84.83.84h8.19c.46 0 .83-.37.83-.84 0-.46-.37-.83-.83-.83zm34.63-13.61c.47 0 .84-.37.84-.84v-4.77c0-1.46-1.03-2.68-2.39-2.97V7.02c0-3.64-2.96-6.6-6.6-6.6-3.64 0-6.59 2.96-6.59 6.6v6.02c-1.37.3-2.4 1.52-2.4 2.97v10.75c0 1.68 1.37 3.04 3.04 3.04h11.9c1.68 0 3.04-1.36 3.04-3.04v-3.19a.83.83 0 00-.84-.83c-.46 0-.83.37-.83.83v3.19c0 .75-.62 1.37-1.37 1.37h-11.9c-.75 0-1.37-.62-1.37-1.37V16.01c0-.75.62-1.37 1.37-1.37h11.9c.75 0 1.37.62 1.37 1.37v4.77c0 .47.37.84.83.84zm-3.23-8.65h-9.84V7.02c0-2.72 2.21-4.93 4.92-4.93 2.72 0 4.92 2.21 4.92 4.93v5.95zm-4.92 4.32c-1.7 0-3.09 1.39-3.09 3.09 0 1.42.96 2.62 2.26 2.98v2.04c0 .47.37.84.83.84.46 0 .84-.37.84-.84v-2.04c1.3-.36 2.25-1.56 2.25-2.98 0-1.7-1.38-3.09-3.09-3.09zm0 4.52a1.425 1.425 0 010-2.85 1.425 1.425 0 010 2.85zM44 33.06c5.42 0 9.81 4.39 9.81 9.8 0 5.41-4.39 9.8-9.81 9.8-5.42 0-9.81-4.39-9.81-9.8 0-5.41 4.39-9.8 9.81-9.8z" fill="#a3bbc8"/></g></g></svg>