<svg version="1.2" baseProfile="tiny-ps" xmlns="http://www.w3.org/2000/svg" width="37" height="34"><style/><g id="Content"><g id="Our Email"><path id="icon" fill-rule="evenodd" d="M.98 33.92a.941.941 0 01-.95-.93L0 12.79v-.02c.01-.29.15-.58.41-.75L5.73 8.4V4.56c0-.51.42-.93.95-.93h6.07L17.96.08c.33-.22.76-.22 1.08 0l5.19 3.55h6.09c.52 0 .95.42.95.93v3.88l5.29 3.62c.19.13.32.32.38.52.02.05.03.13.03.19L37 32.94c0 .51-.42.93-.95.93l-35.07.05zm2.77-1.87l29.48-.04-14.72-11.22L3.75 32.05zm-1.83-.96l11.44-8.73-11.46-7.8.02 16.53zm21.72-8.75l11.46 8.74-.02-16.56-11.44 7.82zM7.63 16.19l7.3 4.97 3-2.29a.976.976 0 011.16 0l2.98 2.27 7.3-4.99V5.49H7.63v10.7zm-5.02-3.41l3.12 2.12v-4.24l-3.12 2.12zm28.66 2.07l3.03-2.07-3.03-2.07v4.14zM16.08 3.63h4.83L18.5 1.98l-2.42 1.65zm-4 12.3c-.52 0-.94-.42-.94-.93s.42-.93.94-.93h12.83c.53 0 .95.42.95.93s-.42.93-.95.93H12.08zm0-4.84c-.52 0-.94-.42-.94-.94 0-.51.42-.93.94-.93h12.83c.53 0 .95.42.95.93 0 .52-.42.94-.95.94H12.08z" fill="#a3bbc8"/></g></g></svg>