<svg version="1.2" baseProfile="tiny-ps" xmlns="http://www.w3.org/2000/svg" width="37" height="44"><style/><g id="Content"><g id="Our Phone"><path id="icon" fill-rule="evenodd" d="M13.44 38.92c0-2.75 2.27-4.99 5.06-4.99 2.79 0 5.06 2.24 5.06 4.99 0 2.76-2.27 5-5.06 5-2.79 0-5.06-2.24-5.06-5zm1.97 0c0 1.68 1.39 3.05 3.09 3.05s3.08-1.37 3.08-3.05c0-1.68-1.38-3.04-3.08-3.04-1.7 0-3.09 1.36-3.09 3.04zm11.47-11.33c0-2.76 2.27-5 5.06-5 2.79 0 5.06 2.24 5.06 5 0 2.75-2.27 4.99-5.06 4.99-2.79 0-5.06-2.24-5.06-4.99zm1.98 0c0 1.68 1.38 3.04 3.08 3.04 1.7 0 3.09-1.36 3.09-3.04s-1.39-3.05-3.09-3.05-3.08 1.37-3.08 3.05zm-15.42 0c0-2.76 2.27-5 5.06-5 2.79 0 5.06 2.24 5.06 5 0 2.75-2.27 4.99-5.06 4.99-2.79 0-5.06-2.24-5.06-4.99zm1.97 0c0 1.68 1.39 3.04 3.09 3.04s3.08-1.36 3.08-3.04-1.38-3.05-3.08-3.05c-1.7 0-3.09 1.37-3.09 3.05zM0 27.59c0-2.76 2.27-5 5.06-5 2.79 0 5.06 2.24 5.06 5 0 2.75-2.27 4.99-5.06 4.99-2.79 0-5.06-2.24-5.06-4.99zm1.97 0c0 1.68 1.39 3.04 3.09 3.04s3.08-1.36 3.08-3.04-1.38-3.05-3.08-3.05c-1.7 0-3.09 1.37-3.09 3.05zm24.91-11.34c0-2.75 2.27-5 5.06-5 2.79 0 5.06 2.25 5.06 5s-2.27 4.99-5.06 4.99c-2.79 0-5.06-2.24-5.06-4.99zm1.98 0c0 1.68 1.38 3.04 3.08 3.04 1.7 0 3.09-1.36 3.09-3.04s-1.39-3.05-3.09-3.05-3.08 1.37-3.08 3.05zm-15.42 0c0-2.75 2.27-5 5.06-5 2.79 0 5.06 2.25 5.06 5s-2.27 4.99-5.06 4.99c-2.79 0-5.06-2.24-5.06-4.99zm1.97 0c0 1.68 1.39 3.04 3.09 3.04s3.08-1.36 3.08-3.04-1.38-3.05-3.08-3.05c-1.7 0-3.09 1.37-3.09 3.05zM0 16.25c0-2.75 2.27-5 5.06-5 2.79 0 5.06 2.25 5.06 5s-2.27 4.99-5.06 4.99C2.27 21.24 0 19 0 16.25zm1.97 0c0 1.68 1.39 3.04 3.09 3.04s3.08-1.36 3.08-3.04-1.38-3.05-3.08-3.05c-1.7 0-3.09 1.37-3.09 3.05zM26.88 4.91c0-2.75 2.27-4.99 5.06-4.99C34.73-.08 37 2.16 37 4.91c0 2.76-2.27 5-5.06 5-2.79 0-5.06-2.24-5.06-5zm1.98 0c0 1.68 1.38 3.05 3.08 3.05 1.7 0 3.09-1.37 3.09-3.05 0-1.68-1.39-3.04-3.09-3.04s-3.08 1.36-3.08 3.04zm-15.42 0c0-2.75 2.27-4.99 5.06-4.99 2.79 0 5.06 2.24 5.06 4.99 0 2.76-2.27 5-5.06 5-2.79 0-5.06-2.24-5.06-5zm1.97 0c0 1.68 1.39 3.05 3.09 3.05s3.08-1.37 3.08-3.05c0-1.68-1.38-3.04-3.08-3.04-1.7 0-3.09 1.36-3.09 3.04zM0 4.91C0 2.16 2.27-.08 5.06-.08c2.79 0 5.06 2.24 5.06 4.99 0 2.76-2.27 5-5.06 5-2.79 0-5.06-2.24-5.06-5zm1.97 0c0 1.68 1.39 3.05 3.09 3.05s3.08-1.37 3.08-3.05c0-1.68-1.38-3.04-3.08-3.04-1.7 0-3.09 1.36-3.09 3.04z" fill="#a3bbc8"/></g></g></svg>