<svg xmlns="http://www.w3.org/2000/svg" width="11pt" height="11pt" viewBox="0 0 11 11"><path d="M9.707.86h-.516V0h-.859v.86H2.668V0h-.867v.86h-.516C.578.86 0 1.437 0 2.144v7.562A1.29 1.29 0 001.285 11h8.422C10.422 11 11 10.422 11 9.707V2.145A1.29 1.29 0 009.707.859zm-8.422.859h.516v.86h.867v-.86h5.664v.86h.86v-.86h.515c.242 0 .434.191.434.426v1.03H.859v-1.03c0-.235.192-.426.426-.426zm8.422 8.422H1.285a.429.429 0 01-.426-.434V4.035h9.282v5.672a.43.43 0 01-.434.434zm-8.078-5.2h.86v.86h-.86zm1.719 0h.859v.86h-.86zm1.718 0h.86v.86h-.86zm1.72 0h.859v.86h-.86zm1.718 0h.86v.86h-.86zm-6.875 1.72h.86v.859h-.86zm1.719 0h.859v.859h-.86zm1.718 0h.86v.859h-.86zm1.72 0h.859v.859h-.86zM1.628 8.378h.86v.86h-.86zm1.719 0h.859v.86h-.86zm1.718 0h.86v.86h-.86zm1.72 0h.859v.86h-.86zM8.503 6.66h.86v.86h-.86zm0 0" fill="#9a9a9a" id="surface1"/></svg>