<svg version="1.2" baseProfile="tiny-ps" xmlns="http://www.w3.org/2000/svg" width="49" height="50"><style/><g id="Features"><g id="Support 24/7."><path id="Shape 1" d="M45.31 11.67a.938.938 0 00-1.29-.3c-.44.27-.57.85-.3 1.29 2.24 3.59 3.42 7.74 3.42 11.99 0 12.51-10.17 22.68-22.68 22.68-4.95 0-9.65-1.57-13.6-4.53a.93.93 0 00-1.31.19.93.93 0 00.19 1.31c4.27 3.21 9.36 4.91 14.72 4.91 13.54 0 24.56-11.02 24.56-24.56 0-4.6-1.28-9.09-3.71-12.98zM22.28 33.61h-7.55l4.74-4.75c2.42-2.41 3.75-5.62 3.75-9.03 0-3.23-2.62-5.85-5.85-5.85-3.22 0-5.84 2.62-5.84 5.85 0 .51.42.93.94.93s.94-.42.94-.93c0-2.19 1.78-3.97 3.96-3.97 2.19 0 3.97 1.78 3.97 3.97 0 2.91-1.13 5.65-3.19 7.71l-6.34 6.34c-.27.27-.35.67-.21 1.03.15.35.49.57.87.57h9.81c.52 0 .94-.42.94-.93 0-.52-.42-.94-.94-.94zm15.04-6.44h-2.6v-1.52c0-.51-.42-.93-.94-.93s-.94.42-.94.93v1.52h-5.28l5.28-8.85v4.21a.939.939 0 101.88 0v-7.62c0-.31-.17-.62-.46-.8a.933.933 0 00-1.28.33L25.1 27.63a.93.93 0 00-.01.94c.17.29.48.48.82.48h6.93v5.5c0 .51.42.93.94.93s.94-.42.94-.93v-5.5h2.6a.939.939 0 100-1.88zm5.33-22.63a.94.94 0 00-.96-.92.93.93 0 00-.91.96l.04 1.75a24.45 24.45 0 00-6.35-4.11A24.351 24.351 0 0024.46.09C10.92.09-.09 11.11-.09 24.65c0 6.65 2.61 12.87 7.36 17.53.18.18.42.27.65.27.25 0 .49-.09.67-.28.37-.37.36-.96-.01-1.33-4.38-4.3-6.8-10.05-6.8-16.19 0-12.51 10.18-22.68 22.68-22.68 5.58 0 10.97 2.08 15.11 5.77l-1.84.04a.94.94 0 00-.92.96c.01.51.43.91.94.91h.02l4.06-.09a.94.94 0 00.92-.96l-.1-4.06z" fill="#a3bbc8"/></g></g></svg>