<svg xmlns="http://www.w3.org/2000/svg" width="20pt" height="20pt" viewBox="0 0 20 20"><path d="M19.45 16.8l-4.59-4.59a8.827 8.827 0 01-2.65 2.65l4.59 4.59c.731.73 1.919.73 2.65 0 .73-.731.73-1.919 0-2.65zM15 7.5C15 3.36 11.64 0 7.5 0 3.36 0 0 3.36 0 7.5 0 11.64 3.36 15 7.5 15c4.14 0 7.5-3.36 7.5-7.5zm-7.5 5.621c-3.102 0-5.629-2.52-5.629-5.621A5.638 5.638 0 017.5 1.871a5.625 5.625 0 010 11.25zM3.121 7.5h1.25A3.14 3.14 0 017.5 4.371v-1.25A4.39 4.39 0 003.121 7.5zm0 0" fill="#a3bbc8" id="surface1"/></svg>