<svg version="1.2" baseProfile="tiny-ps" xmlns="http://www.w3.org/2000/svg" width="18" height="17"><style/><g id="Banner"><g id="Header"><g id="Group 2"><path id="Shape 55" d="M8.91 16.24c-.09 0-.19-.01-.28-.05-.35-.15-8.65-3.75-8.65-10.76C.07 2.78 2.19.72 4.8.72c1.74 0 3.27.92 4.11 2.31A4.809 4.809 0 0113.03.72c2.6 0 4.72 2.06 4.81 4.68 0 7.04-8.29 10.64-8.65 10.79-.09.04-.18.05-.28.05zM4.8 2.11c-1.85 0-3.34 1.47-3.41 3.34 0 5.41 6.13 8.66 7.52 9.34 1.4-.68 7.52-3.93 7.52-9.36-.06-1.85-1.56-3.32-3.4-3.32-1.85 0-3.35 1.47-3.41 3.34-.02.38-.33.67-.71.67a.69.69 0 01-.7-.67C8.14 3.58 6.65 2.11 4.8 2.11z" fill="#243f4d"/></g></g></g></svg>