<svg version="1.2" baseProfile="tiny-ps" xmlns="http://www.w3.org/2000/svg" width="37" height="38"><style/><g id="About Us"><path id="Shape 1" fill-rule="evenodd" d="M1.98 37.96C.89 37.96 0 37.07 0 35.97V8.69c0-.24.1-.47.27-.64L7.74.51c.17-.18.4-.27.64-.27h19.09c1.09 0 1.97.89 1.97 1.99V5.1c0 .51-.4.91-.9.91s-.9-.4-.9-.91V2.23c0-.09-.08-.17-.17-.17H9.28v5.55c0 1.1-.88 1.99-1.97 1.99h-5.5v26.37c0 .09.07.17.17.17h25.49c.09 0 .17-.08.17-.17v-13.9c0-.51.4-.91.9-.91s.9.4.9.91v13.9c0 1.1-.88 1.99-1.97 1.99H1.98zm1.1-30.18h4.23c.09 0 .17-.07.17-.17V3.35l-4.4 4.43zm3.98 23.71c-.5 0-.9-.41-.9-.91s.4-.91.9-.91H11l1.39-5.07c.04-.15.12-.28.23-.4l.02-.01H7.06c-.5 0-.9-.41-.9-.91s.4-.91.9-.91h7.38l5.43-5.48H7.06c-.5 0-.9-.41-.9-.91s.4-.91.9-.91h14.62l8.43-8.51c1.19-1.2 3.13-1.2 4.32 0l1.06 1.08a3.096 3.096 0 010 4.35L18 29.63c-.11.11-.24.19-.39.24 0 0-5.69 1.59-5.7 1.59-.03.01-.23.03-.23.03H7.06zm5.92-2.22l2.65-.74-1.91-1.93-.74 2.67zm1.56-4.42l2.83 2.85L31.8 13.14l-2.83-2.85-14.43 14.56zm16.84-17L30.25 9l2.83 2.85 1.13-1.15c.49-.49.49-1.29 0-1.78l-1.06-1.07c-.24-.24-.56-.37-.88-.37-.32 0-.64.13-.89.37z" fill="#a3bbc8"/></g></svg>