<svg version="1.2" baseProfile="tiny-ps" xmlns="http://www.w3.org/2000/svg" width="42" height="42"><style/><g id="About Us"><path id="Shape 1" fill-rule="evenodd" d="M12.9 32.7c0-1.32.3-2.56.83-3.68L.51 8.58a.92.92 0 01.11-1.14l6.32-6.42c.17-.17.4-.26.63-.26h27.35c.24 0 .46.09.63.26l6.32 6.42c.3.3.35.78.11 1.14L28.76 29.03c.53 1.11.83 2.35.83 3.67 0 4.67-3.74 8.47-8.34 8.47s-8.35-3.8-8.35-8.47zm1.79 0c0 3.67 2.94 6.66 6.56 6.66 3.61 0 6.55-2.99 6.55-6.66 0-3.68-2.94-6.67-6.55-6.67-3.62 0-6.56 2.99-6.56 6.67zm8.55-8.23c1.78.44 3.35 1.47 4.47 2.88L39.58 8.99h-6.34l-10 15.48zm-8.46 2.88a8.281 8.281 0 014.48-2.88L9.25 8.99H2.91l11.87 18.36zm6.45-3.13h.03l9.85-15.23H11.38l9.85 15.23zM3.41 7.17h35.67l-4.53-4.6H7.94l-4.53 4.6zm17.25 28.92v-4.9h-.53c-.49 0-.89-.41-.89-.91s.4-.9.89-.9h1.42c.49 0 .89.4.89.9v5.81c0 .5-.4.91-.89.91s-.89-.41-.89-.91z" fill="#a3bbc8"/></g></svg>